999
DXF file: C:\Users\Alex\Desktop\HS_Karlsruhe\8_CuBa\Michi_Wuerfelmodell\wuerfel_reloaded.dxf
999
Pro/ENGINEER 2015380 by Parametric Technology Corporation
  0
SECTION
  2
HEADER
  9
$ACADVER
  1
AC1027
  9
$DWGCODEPAGE
  3
ANSI_1252
  9
$EXTMAX
 10
297.0
 20
210.0
 30
0.0
  9
$EXTMIN
 10
0.0
 20
0.0
 30
0.0
  9
$LIMMIN
 10
0.0
 20
0.0
  9
$LIMMAX
 10
297.0
 20
210.0
  9
$VIEWCTR
 10
148.5
 20
105.0
  9
$VIEWSIZE
 40
210.0
  9
$CLAYER
  8
0
  9
$LTSCALE
 40
16.335
  9
$CELTYPE
  6
BYLAYER
  9
$DIMSCALE
 40
1.0
  9
$DIMASZ
 40
3.5
  9
$DIMEXO
 40
0.0625
  9
$DIMDLI
 40
11.286
  9
$DIMEXE
 40
1.5
  9
$DIMCEN
 40
2.673
  9
$DIMLFAC
 40
1.0
  9
$DIMBLK
  1
_FILLED
  9
$DIMALT
 70
0
  9
$DIMALTF
 40
0.0393700787
  9
$DIMTXT
 40
3.5
  9
$DIMTOL
 70
1
  9
$DIMLIM
 70
0
  9
$DIMTFAC
 40
1.0
  9
$DIMTP
 40
0.01
  9
$DIMTM
 40
0.01
  9
$DIMGAP
 40
0.625
  9
$DIMDSEP
 70
46
  9
$AUNITS
 70
0
  9
$PDMODE
 70
3
  9
$PDSIZE
 40
0.3125
  9
$HANDSEED
  5
244
  9
$TILEMODE
 70
1
  9
$MEASUREMENT
 70
1
  9
$INSUNITS
 70
4
  0
ENDSEC
  0
SECTION
  2
CLASSES
  0
CLASS
  1
ACDBDICTIONARYWDFLT
  2
AcDbDictionaryWithDefault
  3
AutoCAD 2000
 90
0
 91
1
280
0
281
0
  0
CLASS
  1
ACDBPLACEHOLDER
  2
AcDbPlaceHolder
  3
AutoCAD 2000
 90
0
 91
1
280
0
281
0
  0
CLASS
  1
LAYOUT
  2
AcDbLayout
  3
AutoCAD 2000
 90
0
 91
0
280
0
281
0
  0
ENDSEC
  0
SECTION
  2
TABLES
  0
TABLE
  2
VPORT
  5
8
100
AcDbSymbolTable
 70
2
  0
VPORT
  5
1F4
100
AcDbSymbolTableRecord
100
AcDbViewportTableRecord
  2
*ACTIVE
 70
0
 10
0.0
 20
0.0
 11
1.0
 21
1.0
 12
148.5
 22
105.0
 13
0.0
 23
0.0
 14
1.0
 24
1.0
 15
0.0
 25
0.0
 16
0.0
 26
0.0
 36
1.0
 17
0.0
 27
0.0
 37
0.0
 40
210.0
 41
1.4142857143
 42
50.0
 43
0.0
 44
0.0
 50
0.0
 51
0.0
 71
0
 72
100
 73
1
 74
1
 75
0
 76
0
 77
0
 78
0
  0
ENDTAB
  0
TABLE
  2
LTYPE
  5
5
100
AcDbSymbolTable
 70
6
  0
LTYPE
  5
14
100
AcDbSymbolTableRecord
100
AcDbLinetypeTableRecord
  2
BYBLOCK
 70
0
  3

 72
65
 73
0
 40
0.0
  0
LTYPE
  5
15
100
AcDbSymbolTableRecord
100
AcDbLinetypeTableRecord
  2
BYLAYER
 70
0
  3

 72
65
 73
0
 40
0.0
  0
LTYPE
  5
16
100
AcDbSymbolTableRecord
100
AcDbLinetypeTableRecord
  2
CONTINUOUS
 70
64
  3
Solid line
 72
65
 73
0
 40
0.0
  0
LTYPE
  5
1F5
100
AcDbSymbolTableRecord
100
AcDbLinetypeTableRecord
  2
CENTER
 70
64
  3
____ _ ____ _ ____ _ ____ _ ____ _ ____ _ ____
 72
65
 73
4
 40
0.6
 49
0.375
 74
0
 49
-0.075
 74
0
 49
0.075
 74
0
 49
-0.075
 74
0
  0
LTYPE
  5
1F6
100
AcDbSymbolTableRecord
100
AcDbLinetypeTableRecord
  2
HIDDEN
 70
64
  3
- - - - - - - - - - - - - - - - - - - -
 72
65
 73
2
 40
0.2
 49
0.1
 74
0
 49
-0.1
 74
0
  0
LTYPE
  5
1F7
100
AcDbSymbolTableRecord
100
AcDbLinetypeTableRecord
  2
PHANTOM
 70
64
  3
_____ _ _ _____ _ _ _____ _ _ _____
 72
65
 73
6
 40
0.8
 49
0.45
 74
0
 49
-0.05
 74
0
 49
0.1
 74
0
 49
-0.05
 74
0
 49
0.1
 74
0
 49
-0.05
 74
0
  0
LTYPE
  5
1F8
100
AcDbSymbolTableRecord
100
AcDbLinetypeTableRecord
  2
DOT
 70
64
  3
. . . . . . . . . . . . . . . . . . . .
 72
65
 73
2
 40
0.2
 49
0.1
 74
0
 49
-0.1
 74
0
  0
LTYPE
  5
1F9
100
AcDbSymbolTableRecord
100
AcDbLinetypeTableRecord
  2
DASHED
 70
64
  3
- - - - - - - - - - - - - - - - - - - -
 72
65
 73
2
 40
0.2
 49
0.1
 74
0
 49
-0.1
 74
0
  0
ENDTAB
  0
TABLE
  2
LAYER
  5
2
100
AcDbSymbolTable
 70
36
  0
LAYER
  5
10
100
AcDbSymbolTableRecord
100
AcDbLayerTableRecord
  2
0
 70
0
 62
7
  6
CONTINUOUS
370
-3
390
F
  0
LAYER
  5
1FA
100
AcDbSymbolTableRecord
100
AcDbLayerTableRecord
  2
DEFAULT_1
 70
0
 62
7
  6
CENTER
370
-3
390
F
  0
LAYER
  5
1FB
100
AcDbSymbolTableRecord
100
AcDbLayerTableRecord
  2
DEFAULT_2
 70
0
 62
8
  6
HIDDEN
370
-3
390
F
  0
LAYER
  5
1FC
100
AcDbSymbolTableRecord
100
AcDbLayerTableRecord
  2
DEFAULT_3
 70
0
 62
7
  6
PHANTOM
370
-3
390
F
  0
LAYER
  5
1FD
100
AcDbSymbolTableRecord
100
AcDbLayerTableRecord
  2
00_STD_ACHSEN
 70
0
 62
7
  6
CONTINUOUS
370
-3
390
F
  0
LAYER
  5
1FE
100
AcDbSymbolTableRecord
100
AcDbLayerTableRecord
  2
00_STD_EBENEN
 70
0
 62
7
  6
CONTINUOUS
370
-3
390
F
  0
LAYER
  5
1FF
100
AcDbSymbolTableRecord
100
AcDbLayerTableRecord
  2
00_STD_KSYS
 70
0
 62
7
  6
CONTINUOUS
370
-3
390
F
  0
LAYER
  5
200
100
AcDbSymbolTableRecord
100
AcDbLayerTableRecord
  2
01_ACHSEN
 70
0
 62
7
  6
CONTINUOUS
370
-3
390
F
  0
LAYER
  5
201
100
AcDbSymbolTableRecord
100
AcDbLayerTableRecord
  2
01_KURVEN
 70
0
 62
7
  6
CONTINUOUS
370
-3
390
F
  0
LAYER
  5
202
100
AcDbSymbolTableRecord
100
AcDbLayerTableRecord
  2
02_ALLE_KE
 70
0
 62
7
  6
CONTINUOUS
370
-3
390
F
  0
ENDTAB
  0
TABLE
  2
STYLE
  5
3
100
AcDbSymbolTable
 70
1
  0
STYLE
  5
11
100
AcDbSymbolTableRecord
100
AcDbTextStyleTableRecord
  2
STANDARD
 70
0
 40
0.0
 41
0.8
 50
0.0
 71
0
 42
0.2
  3
txt
  4

  0
STYLE
  5
203
100
AcDbSymbolTableRecord
100
AcDbTextStyleTableRecord
  2
TEXTSTYLE_1
 70
0
 40
0.0
 41
0.8
 50
0.0
 71
0
 42
0.2
  3
gdt
  4

  0
ENDTAB
  0
TABLE
  2
VIEW
  5
6
100
AcDbSymbolTable
 70
0
  0
ENDTAB
  0
TABLE
  2
UCS
  5
7
100
AcDbSymbolTable
 70
0
  0
ENDTAB
  0
TABLE
  2
APPID
  5
9
100
AcDbSymbolTable
 70
1
  0
APPID
  5
204
100
AcDbSymbolTableRecord
100
AcDbRegAppTableRecord
  2
ACAD
 70
0
  0
ENDTAB
  0
TABLE
  2
BLOCK_RECORD
  5
1
100
AcDbSymbolTable
 70
0
  0
BLOCK_RECORD
  5
205
100
AcDbSymbolTableRecord
100
AcDbBlockTableRecord
  2
*Model_Space
  0
BLOCK_RECORD
  5
206
100
AcDbSymbolTableRecord
100
AcDbBlockTableRecord
  2
*Paper_Space
  0
ENDTAB
  0
TABLE
  2
DIMSTYLE
  5
A
100
AcDbSymbolTable
 70
1
100
AcDbDimStyleTable
 71
0
  0
DIMSTYLE
105
207
100
AcDbSymbolTableRecord
100
AcDbDimStyleTableRecord
  2
STANDARD
 70
0
  3

  4

 40
1.0
 41
3.5
 42
0.0625
 43
0.38
 44
1.5
 45
0.0
 46
0.0
 47
0.01
 48
0.01
140
3.5
141
0.09
142
0.0
143
25.4
144
1.0
145
0.0
146
1.0
147
0.625
 71
1.0
 72
0.0
 73
0
 74
0
 75
0
 76
0
 77
1
 78
8
170
0
171
2
172
0
173
0
174
0
175
0
176
0
177
0
178
0
270
2
271
2
272
2
273
2
274
2
275
0
280
0
281
0
282
0
283
1
284
8
285
0
286
0
287
3
288
0
340
11
278
46
  0
ENDTAB
  0
ENDSEC
  0
SECTION
  2
BLOCKS
  0
BLOCK
  5
20
100
AcDbEntity
  8
0
100
AcDbBlockBegin
  2
*Model_Space
 70
0
 10
0.0
 20
0.0
 30
0.0
  3
*Model_Space
  1

  0
ENDBLK
  5
21
100
AcDbEntity
  8
0
100
AcDbBlockEnd
  0
BLOCK
  5
1C
100
AcDbEntity
  8
0
100
AcDbBlockBegin
  2
*Paper_Space
 70
0
 10
0.0
 20
0.0
 30
0.0
  3
*Paper_Space
  1

  0
ENDBLK
  5
1D
100
AcDbEntity
  8
0
100
AcDbBlockEnd
  0
ENDSEC
  0
SECTION
  2
ENTITIES
  0
LINE
  5
208
100
AcDbEntity
  8
0
100
AcDbLine
 62
7
  6
CONTINUOUS
 10
0.0
 20
0.0
 11
0.0
 21
210.0
  0
LINE
  5
209
100
AcDbEntity
  8
0
100
AcDbLine
 62
7
  6
CONTINUOUS
 10
0.0
 20
0.0
 11
297.0
 21
0.0
  0
LINE
  5
20A
100
AcDbEntity
  8
0
100
AcDbLine
 62
7
  6
CONTINUOUS
 10
0.0
 20
210.0
 11
297.0
 21
210.0
  0
LINE
  5
20B
100
AcDbEntity
  8
0
100
AcDbLine
 62
7
  6
CONTINUOUS
 10
297.0
 20
0.0
 11
297.0
 21
210.0
  0
LINE
  5
20C
100
AcDbEntity
  8
02_ALLE_KE
100
AcDbLine
 62
7
  6
CONTINUOUS
 10
69.8478248529
 20
156.5063864526
 11
112.0703513975
 21
190.7700571341
  0
LINE
  5
20D
100
AcDbEntity
  8
02_ALLE_KE
100
AcDbLine
 62
7
  6
CONTINUOUS
 10
73.266955068
 20
156.1622540235
 11
115.4894816125
 21
190.425924705
  0
LINE
  5
20E
100
AcDbEntity
  8
02_ALLE_KE
100
AcDbLine
 62
7
  6
CONTINUOUS
 10
74.3502146703
 20
153.6108791752
 11
114.3208731325
 21
186.047154087
  0
LINE
  5
20F
100
AcDbEntity
  8
02_ALLE_KE
100
AcDbLine
 62
7
  6
CONTINUOUS
 10
68.2475333969
 20
26.566158957
 11
69.8478248529
 21
156.5063864526
  0
LINE
  5
210
100
AcDbEntity
  8
02_ALLE_KE
100
AcDbLine
 62
7
  6
CONTINUOUS
 10
73.266955068
 20
156.1622540235
 11
71.6666636119
 21
26.2220265279
  0
LWPOLYLINE
  5
211
100
AcDbEntity
  8
02_ALLE_KE
100
AcDbPolyline
 62
7
  6
CONTINUOUS
 90
21
 70
0
 10
90.7457159311
 20
156.3128581273
 10
88.3166370459
 20
153.7609318943
 10
85.9329218327
 20
150.0986706836
 10
83.6532652712
 20
145.4162515207
 10
81.5338000716
 20
139.8289711052
 10
79.6267145013
 20
133.4744068243
 10
77.9789673362
 20
126.5090291401
 10
76.6311315802
 20
119.1043487679
 10
75.6163954227
 20
111.4426935132
 10
74.9597450356
 20
103.7127187559
 10
74.6773493309
 20
96.104762129
 10
74.7761618279
 20
88.8061567739
 10
75.253749435
 20
81.9966185772
 10
76.0983523604
 20
75.8438209687
 10
77.2891736769
 20
70.4992662457
 10
78.7968914116
 20
66.0945550829
 10
80.5843805501
 20
62.7381460875
 10
82.6076271774
 20
60.5126851884
 10
84.8168122467
 20
59.4729706187
 10
87.1575382899
 20
59.6446036017
 10
89.5721702168
 20
61.0233590622
  0
LINE
  5
212
100
AcDbEntity
  8
02_ALLE_KE
100
AcDbLine
 62
7
  6
CONTINUOUS
 10
68.2475333969
 20
26.566158957
 11
196.4649164596
 21
13.6611928659
  0
LINE
  5
213
100
AcDbEntity
  8
02_ALLE_KE
100
AcDbLine
 62
7
  6
CONTINUOUS
 10
194.1717202858
 20
14.9190231798
 11
72.7925976531
 21
27.1357244128
  0
LINE
  5
214
100
AcDbEntity
  8
02_ALLE_KE
100
AcDbLine
 62
7
  6
CONTINUOUS
 10
74.3928891091
 20
157.0759519084
 11
72.7925976531
 21
27.1357244128
  0
LWPOLYLINE
  5
215
100
AcDbEntity
  8
02_ALLE_KE
100
AcDbPolyline
 62
7
  6
CONTINUOUS
 90
21
 70
0
 10
94.1648461461
 20
155.9687256982
 10
91.7357672609
 20
153.4167994652
 10
89.3520520477
 20
149.7545382545
 10
87.0723954862
 20
145.0721190916
 10
84.9529302866
 20
139.4848386761
 10
83.0458447163
 20
133.1302743952
 10
81.3980975512
 20
126.164896711
 10
80.0502617952
 20
118.7602163388
 10
79.0355256377
 20
111.0985610841
 10
78.3788752506
 20
103.3685863269
 10
78.0964795459
 20
95.7606296999
 10
78.1952920429
 20
88.4620243448
 10
78.67287965
 20
81.6524861481
 10
79.5174825754
 20
75.4996885396
 10
80.7083038919
 20
70.1551338166
 10
82.2160216266
 20
65.7504226538
 10
84.0035107651
 20
62.3940136584
 10
86.0267573924
 20
60.1685527593
 10
88.2359424617
 20
59.1288381896
 10
90.5766685049
 20
59.3004711726
 10
92.9913004318
 20
60.6792266331
  0
LINE
  5
216
100
AcDbEntity
  8
02_ALLE_KE
100
AcDbLine
 62
7
  6
CONTINUOUS
 10
194.2143947246
 20
18.384095913
 11
72.8352720919
 21
30.600797146
  0
LINE
  5
217
100
AcDbEntity
  8
02_ALLE_KE
100
AcDbLine
 62
7
  6
CONTINUOUS
 10
104.0139161421
 20
41.3201598027
 11
103.9712417032
 21
37.8550870695
  0
LINE
  5
218
100
AcDbEntity
  8
02_ALLE_KE
100
AcDbLine
 62
7
  6
CONTINUOUS
 10
143.0617365796
 20
156.8701694736
 11
144.1876706208
 21
157.7838673585
  0
LINE
  5
219
100
AcDbEntity
  8
02_ALLE_KE
100
AcDbLine
 62
7
  6
CONTINUOUS
 10
88.6209864148
 20
59.0728101843
 11
85.2018561998
 21
59.4169426134
  0
LINE
  5
21A
100
AcDbEntity
  8
02_ALLE_KE
100
AcDbLine
 62
7
  6
CONTINUOUS
 10
112.0703513975
 20
190.7700571341
 11
110.4700599415
 21
60.8298296385
  0
LINE
  5
21B
100
AcDbEntity
  8
02_ALLE_KE
100
AcDbLine
 62
7
  6
CONTINUOUS
 10
112.7632561153
 20
59.5719993246
 11
114.3635475713
 21
189.5122268202
  0
LINE
  5
21C
100
AcDbEntity
  8
02_ALLE_KE
100
AcDbLine
 62
7
  6
CONTINUOUS
 10
234.142378748
 20
47.3552980916
 11
112.7632561153
 21
59.5719993246
  0
LINE
  5
21D
100
AcDbEntity
  8
02_ALLE_KE
100
AcDbLine
 62
7
  6
CONTINUOUS
 10
238.6874430042
 20
47.9248635474
 11
110.4700599415
 21
60.8298296385
  0
LINE
  5
21E
100
AcDbEntity
  8
02_ALLE_KE
100
AcDbLine
 62
7
  6
CONTINUOUS
 10
112.8059305541
 20
63.0370720578
 11
234.1850531868
 21
50.8203708248
  0
LINE
  5
21F
100
AcDbEntity
  8
02_ALLE_KE
100
AcDbLine
 62
7
  6
CONTINUOUS
 10
115.4894816125
 20
190.425924705
 11
113.8891901565
 21
60.4856972094
  0
LWPOLYLINE
  5
220
100
AcDbEntity
  8
02_ALLE_KE
100
AcDbPolyline
 62
7
  6
CONTINUOUS
 90
21
 70
0
 10
173.6661896258
 20
70.7890123742
 10
181.0278736154
 20
70.6353784384
 10
188.2227368249
 20
71.658699351
 10
195.0736178438
 20
73.8337775547
 10
201.4118252446
 20
77.1070554055
 10
207.0812913257
 20
81.3979339394
 10
211.9424150164
 20
86.6007574862
 10
215.8754993183
 20
92.5874152631
 10
218.7836986427
 20
99.2104958869
 10
220.5954034704
 20
106.3069171321
 10
221.266003616
 20
113.7019415558
 10
220.7789866782
 20
121.2134791141
 10
219.1463446303
 20
128.6565708229
 10
216.4082785381
 20
135.8479430622
 10
212.6322086757
 20
142.6105203806
 10
207.9111144154
 20
148.7777856808
 10
202.3612447661
 20
154.1978804232
 10
196.1192559376
 20
158.7373438869
 10
189.3388464109
 20
162.2843994159
 10
182.1869723714
 20
164.751706731
 10
174.8397325835
 20
166.0785129513
  0
LWPOLYLINE
  5
221
100
AcDbEntity
  8
02_ALLE_KE
100
AcDbPolyline
 62
7
  6
CONTINUOUS
 90
21
 70
0
 10
174.792123667
 20
71.702710259
 10
182.1538076566
 20
71.5490763233
 10
189.3486708661
 20
72.5723972358
 10
196.199551885
 20
74.7474754395
 10
202.5377592858
 20
78.0207532903
 10
208.2072253669
 20
82.3116318242
 10
213.0683490576
 20
87.514455371
 10
217.0014333595
 20
93.5011131479
 10
219.9096326839
 20
100.1241937718
 10
221.7213375116
 20
107.2206150169
 10
222.3919376572
 20
114.6156394407
 10
221.9049207194
 20
122.127176999
 10
220.2722786715
 20
129.5702687078
 10
217.5342125793
 20
136.761640947
 10
213.7581427169
 20
143.5242182654
 10
209.0370484566
 20
149.6914835657
 10
203.4871788073
 20
155.1115783081
 10
197.2451899788
 20
159.6510417718
 10
190.4647804521
 20
163.1980973008
 10
183.3129064125
 20
165.6654046159
 10
175.9656666247
 20
166.9922108361
  0
LWPOLYLINE
  5
222
100
AcDbEntity
  8
02_ALLE_KE
100
AcDbPolyline
 62
7
  6
CONTINUOUS
 90
21
 70
0
 10
89.5721688633
 20
61.0233579638
 10
92.0012477485
 20
63.5752841969
 10
94.3849629617
 20
67.2375454075
 10
96.6646195233
 20
71.9199645705
 10
98.7840847229
 20
77.5072449859
 10
100.6911702932
 20
83.8618092668
 10
102.3389174582
 20
90.8271869511
 10
103.6867532143
 20
98.2318673233
 10
104.7014893718
 20
105.893522578
 10
105.3581397588
 20
113.6234973352
 10
105.6405354636
 20
121.2314539621
 10
105.5417229666
 20
128.5300593172
 10
105.0641353594
 20
135.339597514
 10
104.219532434
 20
141.4923951224
 10
103.0287111175
 20
146.8369498455
 10
101.5209933828
 20
151.2416610083
 10
99.7335042444
 20
154.5980700036
 10
97.7102576171
 20
156.8235309028
 10
95.5010725477
 20
157.8632454725
 10
93.1603465045
 20
157.6916124894
 10
90.7457145777
 20
156.312857029
  0
LWPOLYLINE
  5
223
100
AcDbEntity
  8
02_ALLE_KE
100
AcDbPolyline
 62
7
  6
CONTINUOUS
 90
21
 70
0
 10
92.9912990783
 20
60.6792255347
 10
95.4203779636
 20
63.2311517678
 10
97.8040931767
 20
66.8934129784
 10
100.0837497383
 20
71.5758321414
 10
102.2032149379
 20
77.1631125568
 10
104.1103005082
 20
83.5176768377
 10
105.7580476732
 20
90.483054522
 10
107.1058834293
 20
97.8877348942
 10
108.1206195868
 20
105.5493901489
 10
108.7772699738
 20
113.2793649061
 10
109.0596656786
 20
120.887321533
 10
108.9608531816
 20
128.1859268881
 10
108.4832655744
 20
134.9954650849
 10
107.6386626491
 20
141.1482626933
 10
106.4478413325
 20
146.4928174164
 10
104.9401235978
 20
150.8975285792
 10
103.1526344594
 20
154.2539375745
 10
101.1293878321
 20
156.4793984737
 10
98.9202027627
 20
157.5191130434
 10
96.5794767195
 20
157.3474800603
 10
94.1648447927
 20
155.9687245999
  0
LINE
  5
224
100
AcDbEntity
  8
02_ALLE_KE
100
AcDbLine
 62
7
  6
CONTINUOUS
 10
194.6460777006
 20
143.9455527906
 11
236.8686042452
 21
178.2092234721
  0
LINE
  5
225
100
AcDbEntity
  8
02_ALLE_KE
100
AcDbLine
 62
7
  6
CONTINUOUS
 10
198.0652079156
 20
143.6014203615
 11
240.2877344602
 21
177.865091043
  0
LINE
  5
226
100
AcDbEntity
  8
02_ALLE_KE
100
AcDbLine
 62
7
  6
CONTINUOUS
 10
235.6999957652
 20
173.830452854
 11
195.729337303
 21
141.3941779422
  0
LWPOLYLINE
  5
227
100
AcDbEntity
  8
02_ALLE_KE
100
AcDbPolyline
 62
7
  6
CONTINUOUS
 90
21
 70
0
 10
106.4971221831
 20
45.4424048855
 10
104.6540759954
 20
43.4188080206
 10
104.0140288051
 20
41.3285256919
 10
104.5927406979
 20
39.2230275876
 10
106.3759618666
 20
37.1541580587
 10
109.3197834877
 20
35.1728595392
 10
113.3517189031
 20
33.3279181743
 10
118.3724884814
 20
31.6647625432
 10
124.2584642128
 20
30.2243450575
 10
130.8647138402
 20
29.0421335759
 10
138.028569573
 20
28.1472380689
 10
145.5736335076
 20
27.5616938336
 10
153.3141211292
 20
27.2999189125
 10
161.0594359435
 20
27.368359073
 10
168.6188625944
 20
27.7653290911
 10
175.8062629095
 20
28.4810542476
 10
182.4446592394
 20
29.4979110137
 10
188.3705922349
 20
30.7908610011
 10
193.4381457587
 20
32.32806749
 10
197.5225398247
 20
34.071679355
 10
200.5232044491
 20
35.9787641836
  0
LWPOLYLINE
  5
228
100
AcDbEntity
  8
02_ALLE_KE
100
AcDbPolyline
 62
7
  6
CONTINUOUS
 90
21
 70
0
 10
106.4544477442
 20
41.9773321523
 10
104.6114015566
 20
39.9537352874
 10
103.9713543662
 20
37.8634529587
 10
104.5500662591
 20
35.7579548544
 10
106.3332874278
 20
33.6890853255
 10
109.2771090489
 20
31.707786806
 10
113.3090444642
 20
29.8628454411
 10
118.3298140426
 20
28.19968981
 10
124.2157897739
 20
26.7592723243
 10
130.8220394014
 20
25.5770608427
 10
137.9858951342
 20
24.6821653356
 10
145.5309590688
 20
24.0966211004
 10
153.2714466904
 20
23.8348461793
 10
161.0167615047
 20
23.9032863398
 10
168.5761881555
 20
24.3002563579
 10
175.7635884706
 20
25.0159815144
 10
182.4019848006
 20
26.0328382805
 10
188.3279177961
 20
27.3257882679
 10
193.3954713199
 20
28.8629947568
 10
197.4798653859
 20
30.6066066218
 10
200.4805300103
 20
32.5136914504
  0
LINE
  5
229
100
AcDbEntity
  8
02_ALLE_KE
100
AcDbLine
 62
7
  6
CONTINUOUS
 10
72.8352720919
 20
30.600797146
 11
112.8059305541
 21
63.0370720578
  0
LINE
  5
22A
100
AcDbEntity
  8
02_ALLE_KE
100
AcDbLine
 62
7
  6
CONTINUOUS
 10
110.4700599415
 20
60.8298296385
 11
68.2475333969
 21
26.566158957
  0
LINE
  5
22B
100
AcDbEntity
  8
02_ALLE_KE
100
AcDbLine
 62
7
  6
CONTINUOUS
 10
113.8891901565
 20
60.4856972094
 11
71.6666636119
 21
26.2220265279
  0
LINE
  5
22C
100
AcDbEntity
  8
02_ALLE_KE
100
AcDbLine
 62
7
  6
CONTINUOUS
 10
193.0457862446
 20
14.005325295
 11
194.6460777006
 21
143.9455527906
  0
LINE
  5
22D
100
AcDbEntity
  8
02_ALLE_KE
100
AcDbLine
 62
7
  6
CONTINUOUS
 10
194.1717202858
 20
14.9190231798
 11
195.7720117418
 21
144.8592506754
  0
LINE
  5
22E
100
AcDbEntity
  8
02_ALLE_KE
100
AcDbLine
 62
7
  6
CONTINUOUS
 10
196.4649164596
 20
13.6611928659
 11
198.0652079156
 21
143.6014203615
  0
LINE
  5
22F
100
AcDbEntity
  8
02_ALLE_KE
100
AcDbLine
 62
7
  6
CONTINUOUS
 10
203.0064091367
 20
40.1010081681
 11
202.9637346979
 21
36.6359354349
  0
LINE
  5
230
100
AcDbEntity
  8
02_ALLE_KE
100
AcDbLine
 62
7
  6
CONTINUOUS
 10
205.4441897397
 20
79.9973554382
 11
206.5701237809
 21
80.911053323
  0
LINE
  5
231
100
AcDbEntity
  8
02_ALLE_KE
100
AcDbLine
 62
7
  6
CONTINUOUS
 10
195.729337303
 20
141.3941779422
 11
74.3502146703
 21
153.6108791752
  0
LINE
  5
232
100
AcDbEntity
  8
02_ALLE_KE
100
AcDbLine
 62
7
  6
CONTINUOUS
 10
198.0652079156
 20
143.6014203615
 11
69.8478248529
 21
156.5063864526
  0
LINE
  5
233
100
AcDbEntity
  8
02_ALLE_KE
100
AcDbLine
 62
7
  6
CONTINUOUS
 10
195.7720117418
 20
144.8592506754
 11
74.3928891091
 21
157.0759519084
  0
LINE
  5
234
100
AcDbEntity
  8
02_ALLE_KE
100
AcDbLine
 62
7
  6
CONTINUOUS
 10
98.5351588097
 20
157.5751410487
 11
95.1160285947
 21
157.9192734778
  0
LWPOLYLINE
  5
235
100
AcDbEntity
  8
02_ALLE_KE
100
AcDbPolyline
 62
7
  6
CONTINUOUS
 90
21
 70
0
 10
174.8397366936
 20
166.0785125376
 10
167.478052704
 20
166.2321464734
 10
160.2831894944
 20
165.2088255609
 10
153.4323084755
 20
163.0337473572
 10
147.0941010748
 20
159.7604695063
 10
141.4246349936
 20
155.4695909724
 10
136.5635113029
 20
150.2667674256
 10
132.630427001
 20
144.2801096487
 10
129.7222276767
 20
137.6570290249
 10
127.9105228489
 20
130.5606077797
 10
127.2399227033
 20
123.165583356
 10
127.7269396412
 20
115.6540457977
 10
129.359581689
 20
108.2109540889
 10
132.0976477813
 20
101.0195818496
 10
135.8737176436
 20
94.2570045312
 10
140.594811904
 20
88.089739231
 10
146.1446815533
 20
82.6696444886
 10
152.3866703817
 20
78.1301810249
 10
159.1670799084
 20
74.5831254959
 10
166.318953948
 20
72.1158181808
 10
173.6661937358
 20
70.7890119605
  0
LWPOLYLINE
  5
236
100
AcDbEntity
  8
02_ALLE_KE
100
AcDbPolyline
 62
7
  6
CONTINUOUS
 90
21
 70
0
 10
175.9656707347
 20
166.9922104225
 10
168.6039867451
 20
167.1458443582
 10
161.4091235356
 20
166.1225234457
 10
154.5582425167
 20
163.947445242
 10
148.220035116
 20
160.6741673912
 10
142.5505690348
 20
156.3832888573
 10
137.6894453441
 20
151.1804653105
 10
133.7563610422
 20
145.1938075336
 10
130.8481617178
 20
138.5707269097
 10
129.0364568901
 20
131.4743056646
 10
128.3658567445
 20
124.0792812408
 10
128.8528736824
 20
116.5677436825
 10
130.4855157302
 20
109.1246519737
 10
133.2235818225
 20
101.9332797344
 10
136.9996516848
 20
95.1707024161
 10
141.7207459452
 20
89.0034371158
 10
147.2706155944
 20
83.5833423734
 10
153.5126044229
 20
79.0438789097
 10
160.2930139496
 20
75.4968233807
 10
167.4448879892
 20
73.0295160656
 10
174.792127777
 20
71.7027098453
  0
LINE
  5
237
100
AcDbEntity
  8
02_ALLE_KE
100
AcDbLine
 62
7
  6
CONTINUOUS
 10
235.742670204
 20
177.2955255872
 11
234.142378748
 21
47.3552980916
  0
LINE
  5
238
100
AcDbEntity
  8
02_ALLE_KE
100
AcDbLine
 62
7
  6
CONTINUOUS
 10
236.8686042452
 20
178.2092234721
 11
235.2683127892
 21
48.2689959765
  0
LWPOLYLINE
  5
239
100
AcDbEntity
  8
02_ALLE_KE
100
AcDbPolyline
 62
7
  6
CONTINUOUS
 90
21
 70
0
 10
200.5232030957
 20
35.9787630853
 10
202.3662492833
 20
38.0023599502
 10
203.0062964737
 20
40.0926422789
 10
202.4275845809
 20
42.1981403832
 10
200.6443634122
 20
44.2670099121
 10
197.700541791
 20
46.2483084316
 10
193.6686063757
 20
48.0932497965
 10
188.6478367974
 20
49.7564054276
 10
182.761861066
 20
51.1968229133
 10
176.1556114386
 20
52.3790343949
 10
168.9917557057
 20
53.2739299019
 10
161.4466917712
 20
53.8594741372
 10
153.7062041495
 20
54.1212490583
 10
145.9608893353
 20
54.0528088978
 10
138.4014626844
 20
53.6558388797
 10
131.2140623693
 20
52.9401137232
 10
124.5756660394
 20
51.9232569571
 10
118.6497330438
 20
50.6303069697
 10
113.58217952
 20
49.0931004808
 10
109.497785454
 20
47.3494886158
 10
106.4971208296
 20
45.4424037872
  0
LWPOLYLINE
  5
23A
100
AcDbEntity
  8
02_ALLE_KE
100
AcDbPolyline
 62
7
  6
CONTINUOUS
 90
21
 70
0
 10
200.4805286569
 20
32.5136903521
 10
202.3235748445
 20
34.537287217
 10
202.9636220349
 20
36.6275695456
 10
202.384910142
 20
38.73306765
 10
200.6016889733
 20
40.8019371789
 10
197.6578673522
 20
42.7832356984
 10
193.6259319369
 20
44.6281770633
 10
188.6051623585
 20
46.2913326944
 10
182.7191866272
 20
47.7317501801
 10
176.1129369997
 20
48.9139616617
 10
168.9490812669
 20
49.8088571687
 10
161.4040173323
 20
50.394401404
 10
153.6635297107
 20
50.6561763251
 10
145.9182148965
 20
50.5877361646
 10
138.3587882456
 20
50.1907661464
 10
131.1713879305
 20
49.47504099
 10
124.5329916005
 20
48.4581842239
 10
118.607058605
 20
47.1652342365
 10
113.5395050812
 20
45.6280277476
 10
109.4551110152
 20
43.8844158826
 10
106.4544463908
 20
41.977331054
  0
LINE
  5
23B
100
AcDbEntity
  8
02_ALLE_KE
100
AcDbLine
 62
7
  6
CONTINUOUS
 10
114.3208731325
 20
186.047154087
 11
235.6999957652
 21
173.830452854
  0
LINE
  5
23C
100
AcDbEntity
  8
02_ALLE_KE
100
AcDbLine
 62
7
  6
CONTINUOUS
 10
114.3635475713
 20
189.5122268202
 11
235.742670204
 21
177.2955255872
  0
LINE
  5
23D
100
AcDbEntity
  8
02_ALLE_KE
100
AcDbLine
 62
7
  6
CONTINUOUS
 10
240.2877344602
 20
177.865091043
 11
238.6874430042
 21
47.9248635474
  0
LINE
  5
23E
100
AcDbEntity
  8
02_ALLE_KE
100
AcDbLine
 62
7
  6
CONTINUOUS
 10
234.1850531868
 20
50.8203708248
 11
194.2143947246
 21
18.384095913
  0
LINE
  5
23F
100
AcDbEntity
  8
02_ALLE_KE
100
AcDbLine
 62
7
  6
CONTINUOUS
 10
112.0703513975
 20
190.7700571341
 11
240.2877344602
 21
177.865091043
  0
LINE
  5
240
100
AcDbEntity
  8
02_ALLE_KE
100
AcDbLine
 62
7
  6
CONTINUOUS
 10
235.2683127892
 20
48.2689959765
 11
193.0457862446
 21
14.005325295
  0
LINE
  5
241
100
AcDbEntity
  8
02_ALLE_KE
100
AcDbLine
 62
7
  6
CONTINUOUS
 10
238.6874430042
 20
47.9248635474
 11
196.4649164596
 21
13.6611928659
  0
ENDSEC
  0
SECTION
  2
OBJECTS
  0
DICTIONARY
  5
C
100
AcDbDictionary
280
0
281
1
  3
ACAD_GROUP
350
D
  3
ACAD_MLINESTYLE
350
17
  3
ACAD_LAYOUT
350
1A
  3
ACAD_PLOTSETTINGS
350
19
  3
ACAD_PLOTSTYLENAME
350
E
  0
DICTIONARY
  5
D
102
{ACAD_REACTORS
330
C
102
}
100
AcDbDictionary
280
0
281
1
  0
ACDBDICTIONARYWDFLT
  5
E
102
{ACAD_REACTORS
330
C
102
}
100
AcDbDictionary
281
1
  3
Normal
350
F
100
AcDbDictionaryWithDefault
340
F
  0
DICTIONARY
  5
17
102
{ACAD_REACTORS
330
C
102
}
100
AcDbDictionary
280
0
281
1
  3
Standard
350
18
  0
DICTIONARY
  5
19
102
{ACAD_REACTORS
330
C
102
}
100
AcDbDictionary
281
1
  0
DICTIONARY
  5
1A
102
{ACAD_REACTORS
330
C
102
}
100
AcDbDictionary
281
1
  3
Model
350
242
  3
Layout1
350
243
  0
ACDBPLACEHOLDER
  5
F
102
{ACAD_REACTORS
330
E
102
}
  0
MLINESTYLE
  5
18
102
{ACAD_REACTORS
330
17
102
}
100
AcDbMlineStyle
  2
STANDARD
 70
0
  3

 62
256
 51
90.0
 52
90.0
 71
2
 49
0.5
 62
256
  6
BYLAYER
 49
-0.5
 62
256
  6
BYLAYER
  0
LAYOUT
  5
242
102
{ACAD_REACTORS
330
1A
102
}
100
AcDbPlotSettings
  1

  2
none_device
  4
ISO_A4_(297.00_x_210.00_MM)
  6

 40
0.0
 41
0.0
 42
0.0
 43
0.0
 44
297.0
 45
210.0
 46
0.0
 47
0.0
 48
0.0
 49
0.0
140
0.0
141
0.0
142
1.0
143
1.0
 70
1024
 72
1
 73
0
 74
0
  7

 75
0
147
1.0
148
0.0
149
0.0
100
AcDbLayout
  1
Model
 70
0
 71
0
 10
0.0
 20
0.0
 11
297.0
 21
210.0
 12
0.0
 22
0.0
 32
0.0
 14
0.0
 24
0.0
 34
0.0
 15
0.0
 25
0.0
 35
0.0
146
0.0
 13
0.0
 23
0.0
 33
0.0
 16
1.0
 26
0.0
 36
0.0
 17
0.0
 27
1.0
 37
0.0
 76
0
330
205
345
0
346
0
  0
LAYOUT
  5
243
102
{ACAD_REACTORS
330
1A
102
}
100
AcDbPlotSettings
  1

  2
none_device
  4
ISO_A4_(297.00_x_210.00_MM)
  6

 40
0.0
 41
0.0
 42
0.0
 43
0.0
 44
297.0
 45
210.0
 46
0.0
 47
0.0
 48
0.0
 49
0.0
140
0.0
141
0.0
142
1.0
143
1.0
 70
0
 72
1
 73
0
 74
0
  7

 75
0
147
1.0
148
0.0
149
0.0
100
AcDbLayout
  1
Layout1
 70
0
 71
1
 10
0.0
 20
0.0
 11
297.0
 21
210.0
 12
0.0
 22
0.0
 32
0.0
 14
0.0
 24
0.0
 34
0.0
 15
0.0
 25
0.0
 35
0.0
146
0.0
 13
0.0
 23
0.0
 33
0.0
 16
1.0
 26
0.0
 36
0.0
 17
0.0
 27
1.0
 37
0.0
 76
0
330
206
345
0
346
0
  0
ENDSEC
  0
EOF
